<?xml version="1.0" encoding="UTF-8" standalone="no"?>
<svg width="130px" height="138px" viewBox="0 0 130 138" version="1.1" xmlns="http://www.w3.org/2000/svg" xmlns:xlink="http://www.w3.org/1999/xlink">
    <!-- Generator: Sketch 3.8.3 (29802) - http://www.bohemiancoding.com/sketch -->
    <title>Desktop HD</title>
    <desc>Created with Sketch.</desc>
    <defs></defs>
    <g id="Page-1" stroke="none" stroke-width="1" fill="none" fill-rule="evenodd">
        <g id="Desktop-HD">
            <g id="angular-logo-with-text">
                <g id="Group">
                    <g id="Angular-Logo">
                        <g id="Group">
                            <path d="M63.5346,0.0002 L-0.0004,22.6812 L9.6596,106.8882 L63.5346,136.7842 L118.3786,106.4852 L128.8876,22.2792 L63.5346,0.0002 L63.5346,0.0002 Z M63.5346,15.2512 L105.1226,103.7832 L91.3386,103.7832 L82.5836,83.7842 L63.5346,83.7842 L46.8446,83.7842 L38.8496,103.7362 L23.8346,103.9872 L63.5346,15.2512 L63.5346,15.2512 Z" id="Fill-1" fill="#FFFFFF"></path>
                            <polygon id="Fill-2" fill="#FFFFFF" points="52.0919 71.784 63.5339 71.784 77.4439 71.784 63.5339 43.696"></polygon>
                            <path d="M63.5346,0.0002 L-0.0004,22.6812 L9.6596,106.8882 L63.5346,136.7842 L118.3786,106.4852 L128.8876,22.2792 L63.5346,0.0002 L63.5346,0.0002 Z M63.5346,15.2512 L105.1226,103.7832 L91.3386,103.7832 L82.5836,83.7842 L63.5346,83.7842 L46.8446,83.7842 L38.8496,103.7362 L23.8346,103.9872 L63.5346,15.2512 L63.5346,15.2512 Z" id="Fill-3" fill="#FFFFFF"></path>
                            <polygon id="Fill-4" fill="#FFFFFF" points="52.0919 71.784 63.5339 71.784 77.4439 71.784 63.5339 43.696"></polygon>
                            <polygon id="Fill-5" fill="#F2F2F2" points="63.5342 43.6959 63.5342 71.7839 77.4442 71.7839"></polygon>
                            <polygon id="Fill-6" fill="#F2F2F2" points="63.5346 0.0002 63.5346 15.2512 105.1226 103.7832 91.3386 103.7832 82.5836 83.7842 63.5346 83.7842 63.5346 136.7842 118.3786 106.4852 128.8876 22.2792"></polygon>
                            <polygon id="Fill-7" fill="#FFFFFF" points="52.0919 71.784 63.5339 71.784 63.5339 43.696"></polygon>
                            <polygon id="Fill-8" fill="#FFFFFF" points="63.5346 0.0002 -0.0004 22.6812 9.6596 106.8882 63.5346 136.7842 63.5346 83.7842 46.8446 83.7842 38.8496 103.7362 23.8346 103.9872 63.5346 15.2512"></polygon>
                        </g>
                    </g>
                </g>
            </g>
        </g>
    </g>
</svg>